DataType=double
version=3
OpenSimVersion=4.5-2023-11-26-efcdfd3eb
endheader
time	EMG01_right_gast_med	EMG02_right_glut_max	EMG03_left_gast_med	EMG04_left_glut_max	EMG05_right_glut_med	EMG06_right_bic_fem	EMG07_right_rect_fem	EMG08_right_vast_lat	EMG09_right_vast_med	EMG10_right_tens_fasc_lat	EMG11_left_glut_med	EMG12_left_bic_fem	EMG13_left_rect_fem	EMG14_left_vast_lat	EMG15_left_vast_med	EMG16_left_tens_fasc_lat
0.63	0.4846359618200863	0.007152658608168083	0.02946254108940016	0.07573471890919732	0.06753681144480923	0.08381267787863063	0.04062001909119337	0.01445757651558656	0.01663619978877121	0.05656840894990503	0.09677446952198224	0.102576791205791	0.1430982524287095	0.0845712467668573	0.04374352600225454	0.1540043653604428
0.64	0.4729914778734078	0.006286953119497581	0.03874734170425456	0.07567775508250411	0.07281884239401969	0.08358665016878172	0.04275844622111789	0.01476552474601722	0.01674792118759457	0.05651804410263661	0.1038588166446672	0.1069776246760416	0.1511546356931107	0.08975108940166748	0.04709416380780972	0.1527289491609751
0.65	0.4596350592810424	0.006392632794715671	0.04783865834258246	0.07574830336968617	0.07861967235344829	0.08311780949384441	0.04507178148343993	0.01510874582441829	0.01700315019521861	0.0570402661437492	0.1110009455101958	0.1110092459157261	0.1590435677820162	0.09493838598098628	0.05071741517947125	0.1516305979368439
0.66	0.4446825438571231	0.007487048773646083	0.05668342361848102	0.07593651518088779	0.08490002443641442	0.08239593003270708	0.04752579794419774	0.01548219489738277	0.01739307948432291	0.05810597811043662	0.118147938037673	0.1146331955659985	0.1666936993350003	0.1000872227177984	0.05457963222246787	0.1507594136187229
0.67	0.4282653364015417	0.009579635370527638	0.06523642805664291	0.07623070732533181	0.09161333176799402	0.08141649665812992	0.05008523186903095	0.01588089131311027	0.01790751290641055	0.05967929141878557	0.1252457010309423	0.1178144721267079	0.1740335760385515	0.1051500292583637	0.05864285479390006	0.150161685690988
0.68	0.410528766830802	0.01267157280100949	0.07346001257495653	0.07661767049533913	0.09870593887123408	0.08018040407508834	0.05271423555996684	0.01629989752907057	0.01853494735278855	0.06171814786545426	0.1322395070768366	0.1205219564323642	0.1809926535012856	0.110078191304505	0.06286533683241613	0.1498788767951109
0.6899999999999999	0.3916302457778945	0.01675548232470158	0.08132375055174743	0.07708299101469836	0.1061174035871567	0.07869356609185961	0.05537683291784451	0.01673429444272896	0.01926266604508203	0.06417502049504084	0.1390745781888139	0.1227288290449816	0.1875023712682427	0.11482270053535	0.06720213707631745	0.1499466986947234
0.7	0.371737231247432	0.02181516224081883	0.08880413156778955	0.07761137867211644	0.1137809066583935	0.07696645055963809	0.05803736882892288	0.01717915492919562	0.02007684392134891	0.06699768349996361	0.1456967094548423	0.1244129747104575	0.1934972569720722	0.1193348287789712	0.07160576391345458	0.1503943007673293
0.71	0.3510250221465515	0.02782537433379919	0.09588425542141561	0.07818699206249714	0.1216237766868063	0.07501355692806648	0.06066094234490935	0.01762951755624255	0.02096266568981267	0.07013003915820837	0.1520529252497321	0.1255573643250811	0.19891602791263	0.1235668136050592	0.07602686343184838	0.1512435881957565
0.72	0.3296744046545137	0.03475169106341146	0.1025535411404162	0.07879375216822322	0.1295681381116868	0.07285285571312283	0.06321381296651488	0.0180803628474748	0.02190445704026737	0.07351298801788703	0.158092156601466	0.1261504010047227	0.203702654572133	0.127472543760712	0.08041493957452236	0.152508681916717
0.73	0.3078691903538878	0.04255041424499177	0.1088074517151905	0.07941563518659982	0.1375316885162932	0.07050521072070412	0.06566376911777751	0.0185265949285732	0.0228858293935053	0.07708532741060614	0.1637659256424097	0.1261862132652576	0.207807350162938	0.1310082347123453	0.08471909531021921	0.1541955268839788
0.74	0.285793696465931	0.05116857629086686	0.1146472312859913	0.08003693702425542	0.1454286086217677	0.06799380449130005	0.06798044907055248	0.01896303168900529	0.02388983838263083	0.08078466280378728	0.1690290215624588	0.1256648753909699	0.2111874536568855	0.1341330865690725	0.08888878359715439	0.156301649784431
0.75	0.2636302265793035	0.0605440353240434	0.1200796474855827	0.0806425042577241	0.1531706037104116	0.06534358535618852	0.07013560846483739	0.01938440655001742	0.02489915597570234	0.0845483161026151	0.1738401517519541	0.1245925339475554	0.213808181348093	0.1368099180433802	0.09287455686172839	0.1588160630208476
0.76	0.2415566141244082	0.07060567572695658	0.1251167278733559	0.08121792901452958	0.1606680690374062	0.06258075152758671	0.07210333476621182	0.01978538451201107	0.02589625581394056	0.08831421468849619	0.178162551988801	0.1229814223163862	0.2156432326401039	0.1390057699894743	0.09662880420648412	0.1617193092146556
0.77	0.2197438897110237	0.08127372592010561	0.1297754772906717	0.08174970739181527	0.1678313644046712	0.05973228439897314	0.07386021494474852	0.02016059445379347	0.02686361102180498	0.09202174497174623	0.1819645409202517	0.1208497532368323	0.2166752455711075	0.1406924704056844	0.100106466563836	0.1649836395351657
